<svg xmlns="http://www.w3.org/2000/svg" viewBox="0 0 120 120" fill="none">
  <defs>
    <linearGradient id="bg" x1="0" y1="0" x2="1" y2="1">
      <stop offset="0%" stop-color="#a855f7"/>
      <stop offset="100%" stop-color="#3b82f6"/>
    </linearGradient>
    <linearGradient id="star" x1="0" y1="0" x2="1" y2="1">
      <stop offset="0%" stop-color="#ffffff"/>
      <stop offset="100%" stop-color="#e0e7ff"/>
    </linearGradient>
  </defs>
  <!-- Circular background with purple-blue gradient -->
  <circle cx="60" cy="60" r="56" fill="url(#bg)"/>
  <!-- Main 4-pointed star (Sparkles shape) -->
  <path d="M60 24 C62 44, 76 58, 96 60 C76 62, 62 76, 60 96 C58 76, 44 62, 24 60 C44 58, 58 44, 60 24Z" fill="url(#star)"/>
  <!-- Small sparkle top-right -->
  <path d="M85 28 C85.8 33, 89 36.2, 94 37 C89 37.8, 85.8 41, 85 46 C84.2 41, 81 37.8, 76 37 C81 36.2, 84.2 33, 85 28Z" fill="white" opacity="0.9"/>
  <!-- Small sparkle bottom-left -->
  <path d="M35 74 C35.8 79, 39 82.2, 44 83 C39 83.8, 35.8 87, 35 92 C34.2 87, 31 83.8, 26 83 C31 82.2, 34.2 79, 35 74Z" fill="white" opacity="0.7"/>
</svg>
